# xmcd CD database file
#
# Track frame offsets:
#	150
#	20056
#	37231
#	55598
#	74066
#	101366
#	117786
#	130393
#
# Disc length: 1962 seconds
#
# Revision: 0
# Processed by: cddbd v1.5.2PL0 Copyright (c) Steve Scherf et al.
# Submitted via: CDex 1.70beta2
#
DISCID=7207a808
DTITLE=Trio Latina feat. Lina Holm - A touch of Latin
DYEAR=2008
DGENRE=Jazz
TTITLE0=Donde Estás
TTITLE1=Maybe
TTITLE2=Tango Torcido
TTITLE3=Så Nära/Muy Cerca
TTITLE4=Victor
TTITLE5=Corcovado
TTITLE6=Sallad
TTITLE7=Flowing
EXTD=YEAR: 2008
EXTT0=
EXTT1=
EXTT2=
EXTT3=
EXTT4=
EXTT5=
EXTT6=
EXTT7=
PLAYORDER=
